{
 "cells": [
  {
   "cell_type": "code",
   "execution_count": null,
   "id": "07d15da9",
   "metadata": {},
   "outputs": [],
   "source": [
    "import cv2\n",
    "import numpy as np\n",
    "cap = cv2.VideoCapture(1)\n",
    "contador=0\n",
    "while True:\n",
    "    ret,frame = cap.read()\t#capture frame_by_frame\n",
    "    gray = cv2.cvtColor(frame,cv2.COLOR_BGR2GRAY)\n",
    "    cv2.imshow('frame',gray)\n",
    "    cv2.imshow('color',frame)\n",
    "    if cv2.waitKey(1)&0XFF ==ord('q'):\n",
    "        break \n",
    "    if contador>100:\n",
    "        break\n",
    "    contador+=1\n",
    "cap.release()\n",
    "cv2.destroyAllWindows()\n"
   ]
  },
  {
   "cell_type": "code",
   "execution_count": null,
   "id": "3241f056",
   "metadata": {},
   "outputs": [],
   "source": [
    "! ffmpeg -probesize 500000 -f alsa -ac 2 -input_format yuyv422 -f v4l2 -r 10 -i /dev/video1 -c:v libx264 -pix_fmt yuv420p -vf format=yuv420p -preset ultrafast -g 20 -b:v 2500k -c:a aac -ar 44100 -threads 0 -bufsize 512k -f flv rtmp://tankrobotmanagement-tankrobotmanagement-euno.channel.media.azure.net:1935/live/3f37b2cd29d3446f9916d7a2f91c6021"
   ]
  },
  {
   "cell_type": "code",
   "execution_count": 5,
   "id": "89b1107c",
   "metadata": {},
   "outputs": [
    {
     "name": "stdout",
     "output_type": "stream",
     "text": [
      "\u001b[0;35m[video4linux2,v4l2 @ 0x12883a0] \u001b[0mThe driver changed the time per frame from 1/10 to 1/15\n",
      "Input #0, video4linux2,v4l2, from '/dev/video0':\n",
      "  Duration: N/A, start: 1336.874798, bitrate: 73728 kb/s\n",
      "    Stream #0:0: Video: rawvideo (YUY2 / 0x32595559), yuyv422, 640x480, 73728 kb/s, 15 fps, 15 tbr, 1000k tbn, 1000k tbc\n",
      "Stream mapping:\n",
      "  Stream #0:0 -> #0:0 (rawvideo (native) -> h264 (libx264))\n",
      "Press [q] to stop, [?] for help\n",
      "\u001b[1;36m[libx264 @ 0x128c4c0] \u001b[0m\u001b[0;33mVBV maxrate unspecified, assuming CBR\n",
      "\u001b[0m\u001b[1;36m[libx264 @ 0x128c4c0] \u001b[0musing cpu capabilities: ARMv6 NEON\n",
      "\u001b[1;36m[libx264 @ 0x128c4c0] \u001b[0mprofile Constrained Baseline, level 2.2\n",
      "\u001b[1;36m[libx264 @ 0x128c4c0] \u001b[0m264 - core 155 r2917 0a84d98 - H.264/MPEG-4 AVC codec - Copyleft 2003-2018 - http://www.videolan.org/x264.html - options: cabac=0 ref=1 deblock=0:0:0 analyse=0:0 me=dia subme=0 psy=1 psy_rd=1.00:0.00 mixed_ref=0 me_range=16 chroma_me=1 trellis=1 8x8dct=0 cqm=0 deadzone=21,11 fast_pskip=1 chroma_qp_offset=0 threads=6 lookahead_threads=1 sliced_threads=0 nr=0 decimate=1 interlaced=0 bluray_compat=0 constrained_intra=0 bframes=0 weightp=0 keyint=20 keyint_min=2 scenecut=0 intra_refresh=0 rc_lookahead=0 rc=cbr mbtree=0 bitrate=2500 ratetol=1.0 qcomp=0.60 qpmin=0 qpmax=69 qpstep=4 vbv_maxrate=2500 vbv_bufsize=512 nal_hrd=none filler=0 ip_ratio=1.40 aq=0\n",
      "Output #0, flv, to 'rtmp://broadcast.api.video/s/968e6c59-fe86-490f-b491-2441296a1b7e':\n",
      "  Metadata:\n",
      "    encoder         : Lavf58.20.100\n",
      "    Stream #0:0: Video: h264 (libx264) ([7][0][0][0] / 0x0007), yuv420p, 640x480, q=-1--1, 2500 kb/s, 10 fps, 1k tbn, 10 tbc\n",
      "    Metadata:\n",
      "      encoder         : Lavc58.35.100 libx264\n",
      "    Side data:\n",
      "      cpb: bitrate max/min/avg: 0/0/2500000 buffer size: 512000 vbv_delay: -1\n",
      "\u001b[1;35m[flv @ 0x128b060] \u001b[0m\u001b[0;33mFailed to update header with correct duration.speed=0.997x    \n",
      "\u001b[0m\u001b[1;35m[flv @ 0x128b060] \u001b[0m\u001b[0;33mFailed to update header with correct filesize.\n",
      "\u001b[0mframe=  615 fps= 10 q=-1.0 Lsize=   15220kB time=00:01:01.40 bitrate=2030.7kbits/s speed=1.01x    \n",
      "video:15208kB audio:0kB subtitle:0kB other streams:0kB global headers:0kB muxing overhead: 0.080852%\n",
      "\u001b[1;36m[libx264 @ 0x128c4c0] \u001b[0mframe I:31    Avg QP:23.15  size: 52552\n",
      "\u001b[1;36m[libx264 @ 0x128c4c0] \u001b[0mframe P:584   Avg QP:23.95  size: 23875\n",
      "\u001b[1;36m[libx264 @ 0x128c4c0] \u001b[0mmb I  I16..4: 100.0%  0.0%  0.0%\n",
      "\u001b[1;36m[libx264 @ 0x128c4c0] \u001b[0mmb P  I16..4: 15.2%  0.0%  0.0%  P16..4: 75.9%  0.0%  0.0%  0.0%  0.0%    skip: 8.9%\n",
      "\u001b[1;36m[libx264 @ 0x128c4c0] \u001b[0mcoded y,uvDC,uvAC intra: 66.9% 68.8% 20.7% inter: 62.4% 51.8% 2.4%\n",
      "\u001b[1;36m[libx264 @ 0x128c4c0] \u001b[0mi16 v,h,dc,p: 32% 22% 20% 26%\n",
      "\u001b[1;36m[libx264 @ 0x128c4c0] \u001b[0mi8c dc,h,v,p: 39% 22% 25% 14%\n",
      "\u001b[1;36m[libx264 @ 0x128c4c0] \u001b[0mkb/s:2025.66\n",
      "Exiting normally, received signal 2.\n"
     ]
    }
   ],
   "source": [
    "! ffmpeg -f alsa -ac 2 -input_format yuyv422 -f v4l2 -r 10 -i /dev/video0 -c:v libx264 -pix_fmt yuv420p -vf format=yuv420p -preset ultrafast -g 20 -b:v 2500k -c:a aac -ar 44100 -threads 0 -hide_banner -bufsize 512k -hide_banner -f flv rtmp://broadcast.api.video/s/968e6c59-fe86-490f-b491-2441296a1b7e\n",
    "\n"
   ]
  },
  {
   "cell_type": "code",
   "execution_count": null,
   "id": "76a30074",
   "metadata": {},
   "outputs": [],
   "source": [
    "! ffmpeg -re -i /dev/video1  -g 50 -preset ultrafast -tune zerolatency -f flv rtmp://broadcast.api.video/s/0b4ed07a-cd94-4ef0-bf6c-a84937c30138\n",
    "\n"
   ]
  },
  {
   "cell_type": "code",
   "execution_count": null,
   "id": "5f68a8d4",
   "metadata": {},
   "outputs": [],
   "source": [
    "! ffmpeg -analyzeduration 0 -an -re -input_format yuyv422 -f v4l2 -r 20 -i /dev/video1 -c:v libx264 -pix_fmt yuv420p -vf format=yuv420p -preset ultrafast -tune zerolatency -g 20 -tune zerolatency -hide_banner  -b:v 10000k -bufsize 512k -f flv rtmp://57657ade3771422db2f10cd29d0010c7.channel.media.azure.net:1935/live/1b8bfb681c0b4f0c8091160c5f93bbb9/stream1\n"
   ]
  },
  {
   "cell_type": "code",
   "execution_count": null,
   "id": "852bbdff",
   "metadata": {},
   "outputs": [],
   "source": [
    "! ffmpeg -f alsa -ac 2 -input_format yuyv422 -f v4l2 -r 10 -i /dev/video1 -c:v libx264 -pix_fmt yuv420p -vf format=yuv420p -preset ultrafast -g 20 -c:a aac -ar 44100 -threads 0 -bufsize 512k -f flv rtmp://broadcast.api.video/s/db9984ac-4056-4405-89a6-882480dbe757\n"
   ]
  },
  {
   "cell_type": "code",
   "execution_count": null,
   "id": "b7198b54",
   "metadata": {},
   "outputs": [],
   "source": [
    "!raspivid -o - -t 3540000  -fps 25 -g 50 -b 4400000 | ffmpeg -re -i - -vcodec copy -g 50 -preset ultrafast -tune zerolatency -f flv rtmp://broadcast.api.video/s/"
   ]
  },
  {
   "cell_type": "code",
   "execution_count": null,
   "id": "15e84761",
   "metadata": {},
   "outputs": [],
   "source": [
    "! ffmpeg -f alsa -ac 2 -input_format yuyv422 -f v4l2 -r 10 -i /dev/video1 -c:v libx264 -pix_fmt yuv420p -vf format=yuv420p -preset ultrafast -g 20 -b:v 2500k -c:a aac -ar 44100 -threads 0 -hide_banner -bufsize 512k -f mpegts \"udp://192.168.137.134:5000/live/stream\""
   ]
  },
  {
   "cell_type": "code",
   "execution_count": null,
   "id": "b27a4629",
   "metadata": {},
   "outputs": [],
   "source": [
    "!ffmpeg -f v4l2 -s 320x240 -r 25 -i /dev/video1 -f alsa -ac 1 -i hw:0 http://localhost:8090/feed1.ffm"
   ]
  },
  {
   "cell_type": "code",
   "execution_count": null,
   "id": "958cfc2f",
   "metadata": {},
   "outputs": [],
   "source": [
    "!ffmpeg -re -f lavfi -i aevalsrc=\"sin(400*2*PI*t)\" -ar 8000 -f mulaw -f rtp rtp://127.0.0.1:2345"
   ]
  },
  {
   "cell_type": "code",
   "execution_count": null,
   "id": "695b9a49",
   "metadata": {},
   "outputs": [],
   "source": [
    "!ffplay rtp://localhost:1234"
   ]
  },
  {
   "cell_type": "code",
   "execution_count": null,
   "id": "f3e5394f",
   "metadata": {},
   "outputs": [],
   "source": [
    "! ffmpeg -f alsa -input_format yuyv422 -f v4l2 -r 10 -i /dev/video1 -c:v libx264 -pix_fmt yuv420p -vf format=yuv420p -preset ultrafast -tune zerolatency -g 50 -b:v 2500k -threads 0 -hide_banner -bufsize 512k -f flv rtmp://broadcast.api.video/s/cf8c6433-aa6e-4512-8d9a-1b599e2a519a\n",
    "\n"
   ]
  },
  {
   "cell_type": "code",
   "execution_count": 32,
   "id": "b0bf5be6",
   "metadata": {
    "scrolled": false
   },
   "outputs": [
    {
     "name": "stdout",
     "output_type": "stream",
     "text": [
      "Input #0, video4linux2,v4l2, from '/dev/video0':\n",
      "  Duration: N/A, start: 8153.577240, bitrate: 73728 kb/s\n",
      "    Stream #0:0: Video: rawvideo (YUY2 / 0x32595559), yuyv422, 640x480, 73728 kb/s, 15 fps, 15 tbr, 1000k tbn, 1000k tbc\n",
      "Stream mapping:\n",
      "  Stream #0:0 -> #0:0 (rawvideo (native) -> h264 (libx264))\n",
      "Press [q] to stop, [?] for help\n",
      "\u001b[1;36m[libx264 @ 0x807380] \u001b[0musing cpu capabilities: ARMv6 NEON\n",
      "\u001b[1;36m[libx264 @ 0x807380] \u001b[0mprofile Constrained Baseline, level 2.2\n",
      "\u001b[1;36m[libx264 @ 0x807380] \u001b[0m264 - core 155 r2917 0a84d98 - H.264/MPEG-4 AVC codec - Copyleft 2003-2018 - http://www.videolan.org/x264.html - options: cabac=0 ref=1 deblock=0:0:0 analyse=0:0 me=dia subme=0 psy=1 psy_rd=1.00:0.00 mixed_ref=0 me_range=16 chroma_me=1 trellis=1 8x8dct=0 cqm=0 deadzone=21,11 fast_pskip=1 chroma_qp_offset=0 threads=4 lookahead_threads=4 sliced_threads=1 slices=4 nr=0 decimate=1 interlaced=0 bluray_compat=0 constrained_intra=0 bframes=0 weightp=0 keyint=250 keyint_min=10 scenecut=0 intra_refresh=0 rc=crf mbtree=0 crf=21.0 qcomp=0.60 qpmin=0 qpmax=69 qpstep=4 ip_ratio=1.40 aq=0\n",
      "Output #0, flv, to 'rtmp://87cf243d2bd74748a730bd04307b4dd5.channel.media.azure.net:1935/live/1b8bfb681c0b4f0c8091160c5f93bbb9/stream1':\n",
      "  Metadata:\n",
      "    encoder         : Lavf58.20.100\n",
      "    Stream #0:0: Video: h264 (libx264) ([7][0][0][0] / 0x0007), yuv420p, 640x480, q=-1--1, 2 kb/s, 10 fps, 1k tbn, 10 tbc\n",
      "    Metadata:\n",
      "      encoder         : Lavc58.35.100 libx264\n",
      "    Side data:\n",
      "      cpb: bitrate max/min/avg: 0/0/2000 buffer size: 0 vbv_delay: -1\n",
      "\u001b[1;31mav_interleaved_write_frame(): End of file00:03:57.30 bitrate=2729.3kbits/s speed=   1x    \n",
      "\u001b[0m\u001b[1;35m[flv @ 0x805e80] \u001b[0m\u001b[0;33mFailed to update header with correct duration.\n",
      "\u001b[0m\u001b[1;35m[flv @ 0x805e80] \u001b[0m\u001b[0;33mFailed to update header with correct filesize.\n",
      "\u001b[0m\u001b[1;31mError writing trailer of rtmp://87cf243d2bd74748a730bd04307b4dd5.channel.media.azure.net:1935/live/1b8bfb681c0b4f0c8091160c5f93bbb9/stream1: End of file\n",
      "\u001b[0mframe= 2378 fps= 10 q=19.0 Lsize=   79191kB time=00:03:57.80 bitrate=2728.0kbits/s speed=   1x    \n",
      "video:79168kB audio:0kB subtitle:0kB other streams:0kB global headers:0kB muxing overhead: 0.028218%\n",
      "\u001b[1;36m[libx264 @ 0x807380] \u001b[0mframe I:10    Avg QP:16.20  size:102121\n",
      "\u001b[1;36m[libx264 @ 0x807380] \u001b[0mframe P:2368  Avg QP:18.79  size: 33803\n",
      "\u001b[1;36m[libx264 @ 0x807380] \u001b[0mmb I  I16..4: 100.0%  0.0%  0.0%\n",
      "\u001b[1;36m[libx264 @ 0x807380] \u001b[0mmb P  I16..4:  2.1%  0.0%  0.0%  P16..4: 95.1%  0.0%  0.0%  0.0%  0.0%    skip: 2.8%\n",
      "\u001b[1;36m[libx264 @ 0x807380] \u001b[0mcoded y,uvDC,uvAC intra: 55.0% 93.2% 42.2% inter: 75.6% 89.3% 8.1%\n",
      "\u001b[1;36m[libx264 @ 0x807380] \u001b[0mi16 v,h,dc,p: 26% 33% 18% 24%\n",
      "\u001b[1;36m[libx264 @ 0x807380] \u001b[0mi8c dc,h,v,p: 42% 26% 22% 10%\n",
      "\u001b[1;36m[libx264 @ 0x807380] \u001b[0mkb/s:2727.26\n",
      "Conversion failed!\n"
     ]
    }
   ],
   "source": [
    "!ffmpeg   -input_format yuyv422 -i /dev/video0 -c:v libx264 -f v4l2 -pix_fmt yuv420p -crf 21 -video_size 640x480 -r 10 -tune zerolatency -preset ultrafast -b:v 2K -movflags +faststart -hide_banner -f flv rtmp://87cf243d2bd74748a730bd04307b4dd5.channel.media.azure.net:1935/live/1b8bfb681c0b4f0c8091160c5f93bbb9/stream1\n",
    "                "
   ]
  },
  {
   "cell_type": "code",
   "execution_count": null,
   "id": "94ca1ab9",
   "metadata": {},
   "outputs": [],
   "source": [
    "ffmpeg -y -f rawvideo -pix_fmt yuv420p -video_size %wx%h -framerate %fps -i pipe:0 -vcodec libx264 -preset ultrafast -f mp4 %f.mp4\n"
   ]
  },
  {
   "cell_type": "code",
   "execution_count": 14,
   "id": "aab75c8f",
   "metadata": {},
   "outputs": [
    {
     "name": "stdout",
     "output_type": "stream",
     "text": [
      "ffmpeg version 4.1.8-0+deb10u1+rpt1 Copyright (c) 2000-2021 the FFmpeg developers\r\n",
      "  built with gcc 8 (Raspbian 8.3.0-6+rpi1)\r\n",
      "  configuration: --prefix=/usr --extra-version=0+deb10u1+rpt1 --toolchain=hardened --incdir=/usr/include/arm-linux-gnueabihf --enable-gpl --disable-stripping --enable-avresample --disable-filter=resample --enable-avisynth --enable-gnutls --enable-ladspa --enable-libaom --enable-libass --enable-libbluray --enable-libbs2b --enable-libcaca --enable-libcdio --enable-libcodec2 --enable-libflite --enable-libfontconfig --enable-libfreetype --enable-libfribidi --enable-libgme --enable-libgsm --enable-libjack --enable-libmp3lame --enable-libmysofa --enable-libopenjpeg --enable-libopenmpt --enable-libopus --enable-libpulse --enable-librsvg --enable-librubberband --enable-libshine --enable-libsnappy --enable-libsoxr --enable-libspeex --enable-libssh --enable-libtheora --enable-libtwolame --enable-libvidstab --enable-libvorbis --enable-libvpx --enable-libwavpack --enable-libwebp --enable-libx265 --enable-libxml2 --enable-libxvid --enable-libzmq --enable-libzvbi --enable-lv2 --enable-omx --enable-openal --enable-opengl --enable-sdl2 --enable-omx-rpi --enable-mmal --enable-neon --enable-rpi --enable-vout-drm --enable-v4l2-request --enable-libudev --enable-libdc1394 --enable-libdrm --enable-libiec61883 --enable-chromaprint --enable-frei0r --enable-libx264 --enable-shared --libdir=/usr/lib/arm-linux-gnueabihf --cpu=arm1176jzf-s --arch=arm\r\n",
      "  WARNING: library configuration mismatch\r\n",
      "  avutil      configuration: --prefix=/usr --extra-version=0+deb10u1+rpt1 --toolchain=hardened --incdir=/usr/include/arm-linux-gnueabihf --enable-gpl --disable-stripping --enable-avresample --disable-filter=resample --enable-avisynth --enable-gnutls --enable-ladspa --enable-libaom --enable-libass --enable-libbluray --enable-libbs2b --enable-libcaca --enable-libcdio --enable-libcodec2 --enable-libflite --enable-libfontconfig --enable-libfreetype --enable-libfribidi --enable-libgme --enable-libgsm --enable-libjack --enable-libmp3lame --enable-libmysofa --enable-libopenjpeg --enable-libopenmpt --enable-libopus --enable-libpulse --enable-librsvg --enable-librubberband --enable-libshine --enable-libsnappy --enable-libsoxr --enable-libspeex --enable-libssh --enable-libtheora --enable-libtwolame --enable-libvidstab --enable-libvorbis --enable-libvpx --enable-libwavpack --enable-libwebp --enable-libx265 --enable-libxml2 --enable-libxvid --enable-libzmq --enable-libzvbi --enable-lv2 --enable-omx --enable-openal --enable-opengl --enable-sdl2 --enable-omx-rpi --enable-mmal --enable-neon --enable-rpi --enable-vout-drm --enable-v4l2-request --enable-libudev --enable-libdc1394 --enable-libdrm --enable-libiec61883 --enable-chromaprint --enable-frei0r --enable-libx264 --libdir=/usr/lib/arm-linux-gnueabihf/neon/vfp --cpu=cortex-a7 --arch=armv6t2 --disable-thumb --enable-shared --disable-doc --disable-programs\r\n",
      "  avcodec     configuration: --prefix=/usr --extra-version=0+deb10u1+rpt1 --toolchain=hardened --incdir=/usr/include/arm-linux-gnueabihf --enable-gpl --disable-stripping --enable-avresample --disable-filter=resample --enable-avisynth --enable-gnutls --enable-ladspa --enable-libaom --enable-libass --enable-libbluray --enable-libbs2b --enable-libcaca --enable-libcdio --enable-libcodec2 --enable-libflite --enable-libfontconfig --enable-libfreetype --enable-libfribidi --enable-libgme --enable-libgsm --enable-libjack --enable-libmp3lame --enable-libmysofa --enable-libopenjpeg --enable-libopenmpt --enable-libopus --enable-libpulse --enable-librsvg --enable-librubberband --enable-libshine --enable-libsnappy --enable-libsoxr --enable-libspeex --enable-libssh --enable-libtheora --enable-libtwolame --enable-libvidstab --enable-libvorbis --enable-libvpx --enable-libwavpack --enable-libwebp --enable-libx265 --enable-libxml2 --enable-libxvid --enable-libzmq --enable-libzvbi --enable-lv2 --enable-omx --enable-openal --enable-opengl --enable-sdl2 --enable-omx-rpi --enable-mmal --enable-neon --enable-rpi --enable-vout-drm --enable-v4l2-request --enable-libudev --enable-libdc1394 --enable-libdrm --enable-libiec61883 --enable-chromaprint --enable-frei0r --enable-libx264 --libdir=/usr/lib/arm-linux-gnueabihf/neon/vfp --cpu=cortex-a7 --arch=armv6t2 --disable-thumb --enable-shared --disable-doc --disable-programs\r\n",
      "  avformat    configuration: --prefix=/usr --extra-version=0+deb10u1+rpt1 --toolchain=hardened --incdir=/usr/include/arm-linux-gnueabihf --enable-gpl --disable-stripping --enable-avresample --disable-filter=resample --enable-avisynth --enable-gnutls --enable-ladspa --enable-libaom --enable-libass --enable-libbluray --enable-libbs2b --enable-libcaca --enable-libcdio --enable-libcodec2 --enable-libflite --enable-libfontconfig --enable-libfreetype --enable-libfribidi --enable-libgme --enable-libgsm --enable-libjack --enable-libmp3lame --enable-libmysofa --enable-libopenjpeg --enable-libopenmpt --enable-libopus --enable-libpulse --enable-librsvg --enable-librubberband --enable-libshine --enable-libsnappy --enable-libsoxr --enable-libspeex --enable-libssh --enable-libtheora --enable-libtwolame --enable-libvidstab --enable-libvorbis --enable-libvpx --enable-libwavpack --enable-libwebp --enable-libx265 --enable-libxml2 --enable-libxvid --enable-libzmq --enable-libzvbi --enable-lv2 --enable-omx --enable-openal --enable-opengl --enable-sdl2 --enable-omx-rpi --enable-mmal --enable-neon --enable-rpi --enable-vout-drm --enable-v4l2-request --enable-libudev --enable-libdc1394 --enable-libdrm --enable-libiec61883 --enable-chromaprint --enable-frei0r --enable-libx264 --libdir=/usr/lib/arm-linux-gnueabihf/neon/vfp --cpu=cortex-a7 --arch=armv6t2 --disable-thumb --enable-shared --disable-doc --disable-programs\r\n",
      "  avdevice    configuration: --prefix=/usr --extra-version=0+deb10u1+rpt1 --toolchain=hardened --incdir=/usr/include/arm-linux-gnueabihf --enable-gpl --disable-stripping --enable-avresample --disable-filter=resample --enable-avisynth --enable-gnutls --enable-ladspa --enable-libaom --enable-libass --enable-libbluray --enable-libbs2b --enable-libcaca --enable-libcdio --enable-libcodec2 --enable-libflite --enable-libfontconfig --enable-libfreetype --enable-libfribidi --enable-libgme --enable-libgsm --enable-libjack --enable-libmp3lame --enable-libmysofa --enable-libopenjpeg --enable-libopenmpt --enable-libopus --enable-libpulse --enable-librsvg --enable-librubberband --enable-libshine --enable-libsnappy --enable-libsoxr --enable-libspeex --enable-libssh --enable-libtheora --enable-libtwolame --enable-libvidstab --enable-libvorbis --enable-libvpx --enable-libwavpack --enable-libwebp --enable-libx265 --enable-libxml2 --enable-libxvid --enable-libzmq --enable-libzvbi --enable-lv2 --enable-omx --enable-openal --enable-opengl --enable-sdl2 --enable-omx-rpi --enable-mmal --enable-neon --enable-rpi --enable-vout-drm --enable-v4l2-request --enable-libudev --enable-libdc1394 --enable-libdrm --enable-libiec61883 --enable-chromaprint --enable-frei0r --enable-libx264 --libdir=/usr/lib/arm-linux-gnueabihf/neon/vfp --cpu=cortex-a7 --arch=armv6t2 --disable-thumb --enable-shared --disable-doc --disable-programs\r\n",
      "  avfilter    configuration: --prefix=/usr --extra-version=0+deb10u1+rpt1 --toolchain=hardened --incdir=/usr/include/arm-linux-gnueabihf --enable-gpl --disable-stripping --enable-avresample --disable-filter=resample --enable-avisynth --enable-gnutls --enable-ladspa --enable-libaom --enable-libass --enable-libbluray --enable-libbs2b --enable-libcaca --enable-libcdio --enable-libcodec2 --enable-libflite --enable-libfontconfig --enable-libfreetype --enable-libfribidi --enable-libgme --enable-libgsm --enable-libjack --enable-libmp3lame --enable-libmysofa --enable-libopenjpeg --enable-libopenmpt --enable-libopus --enable-libpulse --enable-librsvg --enable-librubberband --enable-libshine --enable-libsnappy --enable-libsoxr --enable-libspeex --enable-libssh --enable-libtheora --enable-libtwolame --enable-libvidstab --enable-libvorbis --enable-libvpx --enable-libwavpack --enable-libwebp --enable-libx265 --enable-libxml2 --enable-libxvid --enable-libzmq --enable-libzvbi --enable-lv2 --enable-omx --enable-openal --enable-opengl --enable-sdl2 --enable-omx-rpi --enable-mmal --enable-neon --enable-rpi --enable-vout-drm --enable-v4l2-request --enable-libudev --enable-libdc1394 --enable-libdrm --enable-libiec61883 --enable-chromaprint --enable-frei0r --enable-libx264 --libdir=/usr/lib/arm-linux-gnueabihf/neon/vfp --cpu=cortex-a7 --arch=armv6t2 --disable-thumb --enable-shared --disable-doc --disable-programs\r\n",
      "  avresample  configuration: --prefix=/usr --extra-version=0+deb10u1+rpt1 --toolchain=hardened --incdir=/usr/include/arm-linux-gnueabihf --enable-gpl --disable-stripping --enable-avresample --disable-filter=resample --enable-avisynth --enable-gnutls --enable-ladspa --enable-libaom --enable-libass --enable-libbluray --enable-libbs2b --enable-libcaca --enable-libcdio --enable-libcodec2 --enable-libflite --enable-libfontconfig --enable-libfreetype --enable-libfribidi --enable-libgme --enable-libgsm --enable-libjack --enable-libmp3lame --enable-libmysofa --enable-libopenjpeg --enable-libopenmpt --enable-libopus --enable-libpulse --enable-librsvg --enable-librubberband --enable-libshine --enable-libsnappy --enable-libsoxr --enable-libspeex --enable-libssh --enable-libtheora --enable-libtwolame --enable-libvidstab --enable-libvorbis --enable-libvpx --enable-libwavpack --enable-libwebp --enable-libx265 --enable-libxml2 --enable-libxvid --enable-libzmq --enable-libzvbi --enable-lv2 --enable-omx --enable-openal --enable-opengl --enable-sdl2 --enable-omx-rpi --enable-mmal --enable-neon --enable-rpi --enable-vout-drm --enable-v4l2-request --enable-libudev --enable-libdc1394 --enable-libdrm --enable-libiec61883 --enable-chromaprint --enable-frei0r --enable-libx264 --libdir=/usr/lib/arm-linux-gnueabihf/neon/vfp --cpu=cortex-a7 --arch=armv6t2 --disable-thumb --enable-shared --disable-doc --disable-programs\r\n",
      "  swscale     configuration: --prefix=/usr --extra-version=0+deb10u1+rpt1 --toolchain=hardened --incdir=/usr/include/arm-linux-gnueabihf --enable-gpl --disable-stripping --enable-avresample --disable-filter=resample --enable-avisynth --enable-gnutls --enable-ladspa --enable-libaom --enable-libass --enable-libbluray --enable-libbs2b --enable-libcaca --enable-libcdio --enable-libcodec2 --enable-libflite --enable-libfontconfig --enable-libfreetype --enable-libfribidi --enable-libgme --enable-libgsm --enable-libjack --enable-libmp3lame --enable-libmysofa --enable-libopenjpeg --enable-libopenmpt --enable-libopus --enable-libpulse --enable-librsvg --enable-librubberband --enable-libshine --enable-libsnappy --enable-libsoxr --enable-libspeex --enable-libssh --enable-libtheora --enable-libtwolame --enable-libvidstab --enable-libvorbis --enable-libvpx --enable-libwavpack --enable-libwebp --enable-libx265 --enable-libxml2 --enable-libxvid --enable-libzmq --enable-libzvbi --enable-lv2 --enable-omx --enable-openal --enable-opengl --enable-sdl2 --enable-omx-rpi --enable-mmal --enable-neon --enable-rpi --enable-vout-drm --enable-v4l2-request --enable-libudev --enable-libdc1394 --enable-libdrm --enable-libiec61883 --enable-chromaprint --enable-frei0r --enable-libx264 --libdir=/usr/lib/arm-linux-gnueabihf/neon/vfp --cpu=cortex-a7 --arch=armv6t2 --disable-thumb --enable-shared --disable-doc --disable-programs\r\n",
      "  swresample  configuration: --prefix=/usr --extra-version=0+deb10u1+rpt1 --toolchain=hardened --incdir=/usr/include/arm-linux-gnueabihf --enable-gpl --disable-stripping --enable-avresample --disable-filter=resample --enable-avisynth --enable-gnutls --enable-ladspa --enable-libaom --enable-libass --enable-libbluray --enable-libbs2b --enable-libcaca --enable-libcdio --enable-libcodec2 --enable-libflite --enable-libfontconfig --enable-libfreetype --enable-libfribidi --enable-libgme --enable-libgsm --enable-libjack --enable-libmp3lame --enable-libmysofa --enable-libopenjpeg --enable-libopenmpt --enable-libopus --enable-libpulse --enable-librsvg --enable-librubberband --enable-libshine --enable-libsnappy --enable-libsoxr --enable-libspeex --enable-libssh --enable-libtheora --enable-libtwolame --enable-libvidstab --enable-libvorbis --enable-libvpx --enable-libwavpack --enable-libwebp --enable-libx265 --enable-libxml2 --enable-libxvid --enable-libzmq --enable-libzvbi --enable-lv2 --enable-omx --enable-openal --enable-opengl --enable-sdl2 --enable-omx-rpi --enable-mmal --enable-neon --enable-rpi --enable-vout-drm --enable-v4l2-request --enable-libudev --enable-libdc1394 --enable-libdrm --enable-libiec61883 --enable-chromaprint --enable-frei0r --enable-libx264 --libdir=/usr/lib/arm-linux-gnueabihf/neon/vfp --cpu=cortex-a7 --arch=armv6t2 --disable-thumb --enable-shared --disable-doc --disable-programs\r\n",
      "  postproc    configuration: --prefix=/usr --extra-version=0+deb10u1+rpt1 --toolchain=hardened --incdir=/usr/include/arm-linux-gnueabihf --enable-gpl --disable-stripping --enable-avresample --disable-filter=resample --enable-avisynth --enable-gnutls --enable-ladspa --enable-libaom --enable-libass --enable-libbluray --enable-libbs2b --enable-libcaca --enable-libcdio --enable-libcodec2 --enable-libflite --enable-libfontconfig --enable-libfreetype --enable-libfribidi --enable-libgme --enable-libgsm --enable-libjack --enable-libmp3lame --enable-libmysofa --enable-libopenjpeg --enable-libopenmpt --enable-libopus --enable-libpulse --enable-librsvg --enable-librubberband --enable-libshine --enable-libsnappy --enable-libsoxr --enable-libspeex --enable-libssh --enable-libtheora --enable-libtwolame --enable-libvidstab --enable-libvorbis --enable-libvpx --enable-libwavpack --enable-libwebp --enable-libx265 --enable-libxml2 --enable-libxvid --enable-libzmq --enable-libzvbi --enable-lv2 --enable-omx --enable-openal --enable-opengl --enable-sdl2 --enable-omx-rpi --enable-mmal --enable-neon --enable-rpi --enable-vout-drm --enable-v4l2-request --enable-libudev --enable-libdc1394 --enable-libdrm --enable-libiec61883 --enable-chromaprint --enable-frei0r --enable-libx264 --libdir=/usr/lib/arm-linux-gnueabihf/neon/vfp --cpu=cortex-a7 --arch=armv6t2 --disable-thumb --enable-shared --disable-doc --disable-programs\r\n",
      "  libavutil      56. 22.100 / 56. 22.100\r\n",
      "  libavcodec     58. 35.100 / 58. 35.100\r\n",
      "  libavformat    58. 20.100 / 58. 20.100\r\n",
      "  libavdevice    58.  5.100 / 58.  5.100\r\n",
      "  libavfilter     7. 40.101 /  7. 40.101\r\n",
      "  libavresample   4.  0.  0 /  4.  0.  0\r\n",
      "  libswscale      5.  3.100 /  5.  3.100\r\n",
      "  libswresample   3.  3.100 /  3.  3.100\r\n",
      "  libpostproc    55.  3.100 / 55.  3.100\r\n"
     ]
    },
    {
     "name": "stdout",
     "output_type": "stream",
     "text": [
      "Input #0, rawvideo, from '/dev/video0':\n",
      "  Duration: N/A, bitrate: 73728 kb/s\n",
      "    Stream #0:0: Video: rawvideo (BGR[24] / 0x18524742), bgr24, 640x480, 73728 kb/s, 10 tbr, 10 tbn, 10 tbc\n",
      "Stream mapping:\n",
      "  Stream #0:0 -> #0:0 (rawvideo (native) -> h264 (libx264))\n",
      "Press [q] to stop, [?] for help\n",
      "\u001b[1;31m/dev/video0: Invalid argument\n",
      "\u001b[0m\u001b[1;36m[libx264 @ 0xb354a0] \u001b[0musing cpu capabilities: ARMv6 NEON\n",
      "\u001b[1;36m[libx264 @ 0xb354a0] \u001b[0mprofile Constrained Baseline, level 2.2\n",
      "\u001b[1;36m[libx264 @ 0xb354a0] \u001b[0m264 - core 155 r2917 0a84d98 - H.264/MPEG-4 AVC codec - Copyleft 2003-2018 - http://www.videolan.org/x264.html - options: cabac=0 ref=1 deblock=0:0:0 analyse=0:0 me=dia subme=0 psy=1 psy_rd=1.00:0.00 mixed_ref=0 me_range=16 chroma_me=1 trellis=1 8x8dct=0 cqm=0 deadzone=21,11 fast_pskip=1 chroma_qp_offset=0 threads=6 lookahead_threads=1 sliced_threads=0 nr=0 decimate=1 interlaced=0 bluray_compat=0 constrained_intra=0 bframes=0 weightp=0 keyint=250 keyint_min=10 scenecut=0 intra_refresh=0 rc=crf mbtree=0 crf=23.0 qcomp=0.60 qpmin=0 qpmax=69 qpstep=4 ip_ratio=1.40 aq=0\n",
      "Output #0, flv, to 'rtmp://broadcast.api.video/s/36ab0c45-4a6e-4ea8-b9d6-bc848947bfed':\n",
      "  Metadata:\n",
      "    encoder         : Lavf58.20.100\n",
      "    Stream #0:0: Video: h264 (libx264) ([7][0][0][0] / 0x0007), yuv420p, 640x480, q=-1--1, 10 fps, 1k tbn, 10 tbc\n",
      "    Metadata:\n",
      "      encoder         : Lavc58.35.100 libx264\n",
      "    Side data:\n",
      "      cpb: bitrate max/min/avg: 0/0/0 buffer size: 0 vbv_delay: -1\n",
      "\u001b[1;35m[flv @ 0xb34040] \u001b[0m\u001b[0;33mFailed to update header with correct duration.\n",
      "\u001b[0m\u001b[1;35m[flv @ 0xb34040] \u001b[0m\u001b[0;33mFailed to update header with correct filesize.\n",
      "\u001b[0mframe=    0 fps=0.0 q=0.0 Lsize=       0kB time=00:00:00.00 bitrate=N/A speed=   0x    \n",
      "video:0kB audio:0kB subtitle:0kB other streams:0kB global headers:0kB muxing overhead: unknown\n"
     ]
    }
   ],
   "source": [
    "!ffmpeg -y -f rawvideo -vcodec rawvideo -pix_fmt bgr24 -s 640x480 -r 10 -i /dev/video0 -c:v libx264 -pix_fmt yuv420p -preset ultrafast -f flv rtmp://broadcast.api.video/s/36ab0c45-4a6e-4ea8-b9d6-bc848947bfed\n"
   ]
  },
  {
   "cell_type": "code",
   "execution_count": null,
   "id": "1dd5fb21",
   "metadata": {},
   "outputs": [],
   "source": [
    "!ffmpeg -f avfoundation -list_devices true -i \"\""
   ]
  },
  {
   "cell_type": "code",
   "execution_count": 2,
   "id": "fd912eda",
   "metadata": {},
   "outputs": [
    {
     "name": "stdout",
     "output_type": "stream",
     "text": [
      "ffmpeg version 4.1.8-0+deb10u1+rpt1 Copyright (c) 2000-2021 the FFmpeg developers\r\n",
      "  built with gcc 8 (Raspbian 8.3.0-6+rpi1)\r\n",
      "  configuration: --prefix=/usr --extra-version=0+deb10u1+rpt1 --toolchain=hardened --incdir=/usr/include/arm-linux-gnueabihf --enable-gpl --disable-stripping --enable-avresample --disable-filter=resample --enable-avisynth --enable-gnutls --enable-ladspa --enable-libaom --enable-libass --enable-libbluray --enable-libbs2b --enable-libcaca --enable-libcdio --enable-libcodec2 --enable-libflite --enable-libfontconfig --enable-libfreetype --enable-libfribidi --enable-libgme --enable-libgsm --enable-libjack --enable-libmp3lame --enable-libmysofa --enable-libopenjpeg --enable-libopenmpt --enable-libopus --enable-libpulse --enable-librsvg --enable-librubberband --enable-libshine --enable-libsnappy --enable-libsoxr --enable-libspeex --enable-libssh --enable-libtheora --enable-libtwolame --enable-libvidstab --enable-libvorbis --enable-libvpx --enable-libwavpack --enable-libwebp --enable-libx265 --enable-libxml2 --enable-libxvid --enable-libzmq --enable-libzvbi --enable-lv2 --enable-omx --enable-openal --enable-opengl --enable-sdl2 --enable-omx-rpi --enable-mmal --enable-neon --enable-rpi --enable-vout-drm --enable-v4l2-request --enable-libudev --enable-libdc1394 --enable-libdrm --enable-libiec61883 --enable-chromaprint --enable-frei0r --enable-libx264 --enable-shared --libdir=/usr/lib/arm-linux-gnueabihf --cpu=arm1176jzf-s --arch=arm\r\n",
      "  WARNING: library configuration mismatch\r\n",
      "  avutil      configuration: --prefix=/usr --extra-version=0+deb10u1+rpt1 --toolchain=hardened --incdir=/usr/include/arm-linux-gnueabihf --enable-gpl --disable-stripping --enable-avresample --disable-filter=resample --enable-avisynth --enable-gnutls --enable-ladspa --enable-libaom --enable-libass --enable-libbluray --enable-libbs2b --enable-libcaca --enable-libcdio --enable-libcodec2 --enable-libflite --enable-libfontconfig --enable-libfreetype --enable-libfribidi --enable-libgme --enable-libgsm --enable-libjack --enable-libmp3lame --enable-libmysofa --enable-libopenjpeg --enable-libopenmpt --enable-libopus --enable-libpulse --enable-librsvg --enable-librubberband --enable-libshine --enable-libsnappy --enable-libsoxr --enable-libspeex --enable-libssh --enable-libtheora --enable-libtwolame --enable-libvidstab --enable-libvorbis --enable-libvpx --enable-libwavpack --enable-libwebp --enable-libx265 --enable-libxml2 --enable-libxvid --enable-libzmq --enable-libzvbi --enable-lv2 --enable-omx --enable-openal --enable-opengl --enable-sdl2 --enable-omx-rpi --enable-mmal --enable-neon --enable-rpi --enable-vout-drm --enable-v4l2-request --enable-libudev --enable-libdc1394 --enable-libdrm --enable-libiec61883 --enable-chromaprint --enable-frei0r --enable-libx264 --libdir=/usr/lib/arm-linux-gnueabihf/neon/vfp --cpu=cortex-a7 --arch=armv6t2 --disable-thumb --enable-shared --disable-doc --disable-programs\r\n",
      "  avcodec     configuration: --prefix=/usr --extra-version=0+deb10u1+rpt1 --toolchain=hardened --incdir=/usr/include/arm-linux-gnueabihf --enable-gpl --disable-stripping --enable-avresample --disable-filter=resample --enable-avisynth --enable-gnutls --enable-ladspa --enable-libaom --enable-libass --enable-libbluray --enable-libbs2b --enable-libcaca --enable-libcdio --enable-libcodec2 --enable-libflite --enable-libfontconfig --enable-libfreetype --enable-libfribidi --enable-libgme --enable-libgsm --enable-libjack --enable-libmp3lame --enable-libmysofa --enable-libopenjpeg --enable-libopenmpt --enable-libopus --enable-libpulse --enable-librsvg --enable-librubberband --enable-libshine --enable-libsnappy --enable-libsoxr --enable-libspeex --enable-libssh --enable-libtheora --enable-libtwolame --enable-libvidstab --enable-libvorbis --enable-libvpx --enable-libwavpack --enable-libwebp --enable-libx265 --enable-libxml2 --enable-libxvid --enable-libzmq --enable-libzvbi --enable-lv2 --enable-omx --enable-openal --enable-opengl --enable-sdl2 --enable-omx-rpi --enable-mmal --enable-neon --enable-rpi --enable-vout-drm --enable-v4l2-request --enable-libudev --enable-libdc1394 --enable-libdrm --enable-libiec61883 --enable-chromaprint --enable-frei0r --enable-libx264 --libdir=/usr/lib/arm-linux-gnueabihf/neon/vfp --cpu=cortex-a7 --arch=armv6t2 --disable-thumb --enable-shared --disable-doc --disable-programs\r\n",
      "  avformat    configuration: --prefix=/usr --extra-version=0+deb10u1+rpt1 --toolchain=hardened --incdir=/usr/include/arm-linux-gnueabihf --enable-gpl --disable-stripping --enable-avresample --disable-filter=resample --enable-avisynth --enable-gnutls --enable-ladspa --enable-libaom --enable-libass --enable-libbluray --enable-libbs2b --enable-libcaca --enable-libcdio --enable-libcodec2 --enable-libflite --enable-libfontconfig --enable-libfreetype --enable-libfribidi --enable-libgme --enable-libgsm --enable-libjack --enable-libmp3lame --enable-libmysofa --enable-libopenjpeg --enable-libopenmpt --enable-libopus --enable-libpulse --enable-librsvg --enable-librubberband --enable-libshine --enable-libsnappy --enable-libsoxr --enable-libspeex --enable-libssh --enable-libtheora --enable-libtwolame --enable-libvidstab --enable-libvorbis --enable-libvpx --enable-libwavpack --enable-libwebp --enable-libx265 --enable-libxml2 --enable-libxvid --enable-libzmq --enable-libzvbi --enable-lv2 --enable-omx --enable-openal --enable-opengl --enable-sdl2 --enable-omx-rpi --enable-mmal --enable-neon --enable-rpi --enable-vout-drm --enable-v4l2-request --enable-libudev --enable-libdc1394 --enable-libdrm --enable-libiec61883 --enable-chromaprint --enable-frei0r --enable-libx264 --libdir=/usr/lib/arm-linux-gnueabihf/neon/vfp --cpu=cortex-a7 --arch=armv6t2 --disable-thumb --enable-shared --disable-doc --disable-programs\r\n",
      "  avdevice    configuration: --prefix=/usr --extra-version=0+deb10u1+rpt1 --toolchain=hardened --incdir=/usr/include/arm-linux-gnueabihf --enable-gpl --disable-stripping --enable-avresample --disable-filter=resample --enable-avisynth --enable-gnutls --enable-ladspa --enable-libaom --enable-libass --enable-libbluray --enable-libbs2b --enable-libcaca --enable-libcdio --enable-libcodec2 --enable-libflite --enable-libfontconfig --enable-libfreetype --enable-libfribidi --enable-libgme --enable-libgsm --enable-libjack --enable-libmp3lame --enable-libmysofa --enable-libopenjpeg --enable-libopenmpt --enable-libopus --enable-libpulse --enable-librsvg --enable-librubberband --enable-libshine --enable-libsnappy --enable-libsoxr --enable-libspeex --enable-libssh --enable-libtheora --enable-libtwolame --enable-libvidstab --enable-libvorbis --enable-libvpx --enable-libwavpack --enable-libwebp --enable-libx265 --enable-libxml2 --enable-libxvid --enable-libzmq --enable-libzvbi --enable-lv2 --enable-omx --enable-openal --enable-opengl --enable-sdl2 --enable-omx-rpi --enable-mmal --enable-neon --enable-rpi --enable-vout-drm --enable-v4l2-request --enable-libudev --enable-libdc1394 --enable-libdrm --enable-libiec61883 --enable-chromaprint --enable-frei0r --enable-libx264 --libdir=/usr/lib/arm-linux-gnueabihf/neon/vfp --cpu=cortex-a7 --arch=armv6t2 --disable-thumb --enable-shared --disable-doc --disable-programs\r\n",
      "  avfilter    configuration: --prefix=/usr --extra-version=0+deb10u1+rpt1 --toolchain=hardened --incdir=/usr/include/arm-linux-gnueabihf --enable-gpl --disable-stripping --enable-avresample --disable-filter=resample --enable-avisynth --enable-gnutls --enable-ladspa --enable-libaom --enable-libass --enable-libbluray --enable-libbs2b --enable-libcaca --enable-libcdio --enable-libcodec2 --enable-libflite --enable-libfontconfig --enable-libfreetype --enable-libfribidi --enable-libgme --enable-libgsm --enable-libjack --enable-libmp3lame --enable-libmysofa --enable-libopenjpeg --enable-libopenmpt --enable-libopus --enable-libpulse --enable-librsvg --enable-librubberband --enable-libshine --enable-libsnappy --enable-libsoxr --enable-libspeex --enable-libssh --enable-libtheora --enable-libtwolame --enable-libvidstab --enable-libvorbis --enable-libvpx --enable-libwavpack --enable-libwebp --enable-libx265 --enable-libxml2 --enable-libxvid --enable-libzmq --enable-libzvbi --enable-lv2 --enable-omx --enable-openal --enable-opengl --enable-sdl2 --enable-omx-rpi --enable-mmal --enable-neon --enable-rpi --enable-vout-drm --enable-v4l2-request --enable-libudev --enable-libdc1394 --enable-libdrm --enable-libiec61883 --enable-chromaprint --enable-frei0r --enable-libx264 --libdir=/usr/lib/arm-linux-gnueabihf/neon/vfp --cpu=cortex-a7 --arch=armv6t2 --disable-thumb --enable-shared --disable-doc --disable-programs\r\n",
      "  avresample  configuration: --prefix=/usr --extra-version=0+deb10u1+rpt1 --toolchain=hardened --incdir=/usr/include/arm-linux-gnueabihf --enable-gpl --disable-stripping --enable-avresample --disable-filter=resample --enable-avisynth --enable-gnutls --enable-ladspa --enable-libaom --enable-libass --enable-libbluray --enable-libbs2b --enable-libcaca --enable-libcdio --enable-libcodec2 --enable-libflite --enable-libfontconfig --enable-libfreetype --enable-libfribidi --enable-libgme --enable-libgsm --enable-libjack --enable-libmp3lame --enable-libmysofa --enable-libopenjpeg --enable-libopenmpt --enable-libopus --enable-libpulse --enable-librsvg --enable-librubberband --enable-libshine --enable-libsnappy --enable-libsoxr --enable-libspeex --enable-libssh --enable-libtheora --enable-libtwolame --enable-libvidstab --enable-libvorbis --enable-libvpx --enable-libwavpack --enable-libwebp --enable-libx265 --enable-libxml2 --enable-libxvid --enable-libzmq --enable-libzvbi --enable-lv2 --enable-omx --enable-openal --enable-opengl --enable-sdl2 --enable-omx-rpi --enable-mmal --enable-neon --enable-rpi --enable-vout-drm --enable-v4l2-request --enable-libudev --enable-libdc1394 --enable-libdrm --enable-libiec61883 --enable-chromaprint --enable-frei0r --enable-libx264 --libdir=/usr/lib/arm-linux-gnueabihf/neon/vfp --cpu=cortex-a7 --arch=armv6t2 --disable-thumb --enable-shared --disable-doc --disable-programs\r\n",
      "  swscale     configuration: --prefix=/usr --extra-version=0+deb10u1+rpt1 --toolchain=hardened --incdir=/usr/include/arm-linux-gnueabihf --enable-gpl --disable-stripping --enable-avresample --disable-filter=resample --enable-avisynth --enable-gnutls --enable-ladspa --enable-libaom --enable-libass --enable-libbluray --enable-libbs2b --enable-libcaca --enable-libcdio --enable-libcodec2 --enable-libflite --enable-libfontconfig --enable-libfreetype --enable-libfribidi --enable-libgme --enable-libgsm --enable-libjack --enable-libmp3lame --enable-libmysofa --enable-libopenjpeg --enable-libopenmpt --enable-libopus --enable-libpulse --enable-librsvg --enable-librubberband --enable-libshine --enable-libsnappy --enable-libsoxr --enable-libspeex --enable-libssh --enable-libtheora --enable-libtwolame --enable-libvidstab --enable-libvorbis --enable-libvpx --enable-libwavpack --enable-libwebp --enable-libx265 --enable-libxml2 --enable-libxvid --enable-libzmq --enable-libzvbi --enable-lv2 --enable-omx --enable-openal --enable-opengl --enable-sdl2 --enable-omx-rpi --enable-mmal --enable-neon --enable-rpi --enable-vout-drm --enable-v4l2-request --enable-libudev --enable-libdc1394 --enable-libdrm --enable-libiec61883 --enable-chromaprint --enable-frei0r --enable-libx264 --libdir=/usr/lib/arm-linux-gnueabihf/neon/vfp --cpu=cortex-a7 --arch=armv6t2 --disable-thumb --enable-shared --disable-doc --disable-programs\r\n",
      "  swresample  configuration: --prefix=/usr --extra-version=0+deb10u1+rpt1 --toolchain=hardened --incdir=/usr/include/arm-linux-gnueabihf --enable-gpl --disable-stripping --enable-avresample --disable-filter=resample --enable-avisynth --enable-gnutls --enable-ladspa --enable-libaom --enable-libass --enable-libbluray --enable-libbs2b --enable-libcaca --enable-libcdio --enable-libcodec2 --enable-libflite --enable-libfontconfig --enable-libfreetype --enable-libfribidi --enable-libgme --enable-libgsm --enable-libjack --enable-libmp3lame --enable-libmysofa --enable-libopenjpeg --enable-libopenmpt --enable-libopus --enable-libpulse --enable-librsvg --enable-librubberband --enable-libshine --enable-libsnappy --enable-libsoxr --enable-libspeex --enable-libssh --enable-libtheora --enable-libtwolame --enable-libvidstab --enable-libvorbis --enable-libvpx --enable-libwavpack --enable-libwebp --enable-libx265 --enable-libxml2 --enable-libxvid --enable-libzmq --enable-libzvbi --enable-lv2 --enable-omx --enable-openal --enable-opengl --enable-sdl2 --enable-omx-rpi --enable-mmal --enable-neon --enable-rpi --enable-vout-drm --enable-v4l2-request --enable-libudev --enable-libdc1394 --enable-libdrm --enable-libiec61883 --enable-chromaprint --enable-frei0r --enable-libx264 --libdir=/usr/lib/arm-linux-gnueabihf/neon/vfp --cpu=cortex-a7 --arch=armv6t2 --disable-thumb --enable-shared --disable-doc --disable-programs\r\n",
      "  postproc    configuration: --prefix=/usr --extra-version=0+deb10u1+rpt1 --toolchain=hardened --incdir=/usr/include/arm-linux-gnueabihf --enable-gpl --disable-stripping --enable-avresample --disable-filter=resample --enable-avisynth --enable-gnutls --enable-ladspa --enable-libaom --enable-libass --enable-libbluray --enable-libbs2b --enable-libcaca --enable-libcdio --enable-libcodec2 --enable-libflite --enable-libfontconfig --enable-libfreetype --enable-libfribidi --enable-libgme --enable-libgsm --enable-libjack --enable-libmp3lame --enable-libmysofa --enable-libopenjpeg --enable-libopenmpt --enable-libopus --enable-libpulse --enable-librsvg --enable-librubberband --enable-libshine --enable-libsnappy --enable-libsoxr --enable-libspeex --enable-libssh --enable-libtheora --enable-libtwolame --enable-libvidstab --enable-libvorbis --enable-libvpx --enable-libwavpack --enable-libwebp --enable-libx265 --enable-libxml2 --enable-libxvid --enable-libzmq --enable-libzvbi --enable-lv2 --enable-omx --enable-openal --enable-opengl --enable-sdl2 --enable-omx-rpi --enable-mmal --enable-neon --enable-rpi --enable-vout-drm --enable-v4l2-request --enable-libudev --enable-libdc1394 --enable-libdrm --enable-libiec61883 --enable-chromaprint --enable-frei0r --enable-libx264 --libdir=/usr/lib/arm-linux-gnueabihf/neon/vfp --cpu=cortex-a7 --arch=armv6t2 --disable-thumb --enable-shared --disable-doc --disable-programs\r\n",
      "  libavutil      56. 22.100 / 56. 22.100\r\n",
      "  libavcodec     58. 35.100 / 58. 35.100\r\n",
      "  libavformat    58. 20.100 / 58. 20.100\r\n",
      "  libavdevice    58.  5.100 / 58.  5.100\r\n",
      "  libavfilter     7. 40.101 /  7. 40.101\r\n",
      "  libavresample   4.  0.  0 /  4.  0.  0\r\n",
      "  libswscale      5.  3.100 /  5.  3.100\r\n",
      "  libswresample   3.  3.100 /  3.  3.100\r\n",
      "  libpostproc    55.  3.100 / 55.  3.100\r\n"
     ]
    },
    {
     "name": "stdout",
     "output_type": "stream",
     "text": [
      "\u001b[0;35m[video4linux2,v4l2 @ 0x1d65200] \u001b[0m\u001b[1;31mCannot find a proper format for codec 'h264' (id 27), pixel format 'none' (id -1)\r\n",
      "\u001b[0m\u001b[4;31mAssertion *codec_id != AV_CODEC_ID_NONE failed at src/libavdevice/v4l2.c:811\r\n",
      "\u001b[0m"
     ]
    }
   ],
   "source": [
    "!ffmpeg  -input_format h264 -f v4l2  -i /dev/video0 -c:v copy -f flv rtmp://broadcast.api.video/s/9fbd8f37-4286-4d13-87f9-f23114eb48ba\n"
   ]
  },
  {
   "cell_type": "code",
   "execution_count": null,
   "id": "998f4f8d",
   "metadata": {
    "scrolled": false
   },
   "outputs": [],
   "source": [
    "!ffmpeg -input_format yuyv422 -i /dev/video0 -c:v libx264 -r 15  -preset ultrafast -tune zerolatency -b:v 50M -f flv rtmp://broadcast.api.video/s/1f089887-0ed5-4a8f-83cf-2813e5b7defc\n",
    "\n",
    "\n"
   ]
  },
  {
   "cell_type": "code",
   "execution_count": null,
   "id": "92226901",
   "metadata": {},
   "outputs": [],
   "source": [
    "!ffmpeg -f v4l2 -input_format mjpeg -i /dev/video0 -c:v copy -f flv rtmp://broadcast.api.video/s/04583ca1-8c08-497d-a423-6e6912360102\n"
   ]
  },
  {
   "cell_type": "code",
   "execution_count": 4,
   "id": "63f72757",
   "metadata": {},
   "outputs": [
    {
     "name": "stdout",
     "output_type": "stream",
     "text": [
      "ffmpeg version 4.1.8-0+deb10u1+rpt1 Copyright (c) 2000-2021 the FFmpeg developers\r\n",
      "  built with gcc 8 (Raspbian 8.3.0-6+rpi1)\r\n",
      "  configuration: --prefix=/usr --extra-version=0+deb10u1+rpt1 --toolchain=hardened --incdir=/usr/include/arm-linux-gnueabihf --enable-gpl --disable-stripping --enable-avresample --disable-filter=resample --enable-avisynth --enable-gnutls --enable-ladspa --enable-libaom --enable-libass --enable-libbluray --enable-libbs2b --enable-libcaca --enable-libcdio --enable-libcodec2 --enable-libflite --enable-libfontconfig --enable-libfreetype --enable-libfribidi --enable-libgme --enable-libgsm --enable-libjack --enable-libmp3lame --enable-libmysofa --enable-libopenjpeg --enable-libopenmpt --enable-libopus --enable-libpulse --enable-librsvg --enable-librubberband --enable-libshine --enable-libsnappy --enable-libsoxr --enable-libspeex --enable-libssh --enable-libtheora --enable-libtwolame --enable-libvidstab --enable-libvorbis --enable-libvpx --enable-libwavpack --enable-libwebp --enable-libx265 --enable-libxml2 --enable-libxvid --enable-libzmq --enable-libzvbi --enable-lv2 --enable-omx --enable-openal --enable-opengl --enable-sdl2 --enable-omx-rpi --enable-mmal --enable-neon --enable-rpi --enable-vout-drm --enable-v4l2-request --enable-libudev --enable-libdc1394 --enable-libdrm --enable-libiec61883 --enable-chromaprint --enable-frei0r --enable-libx264 --enable-shared --libdir=/usr/lib/arm-linux-gnueabihf --cpu=arm1176jzf-s --arch=arm\r\n",
      "  WARNING: library configuration mismatch\r\n",
      "  avutil      configuration: --prefix=/usr --extra-version=0+deb10u1+rpt1 --toolchain=hardened --incdir=/usr/include/arm-linux-gnueabihf --enable-gpl --disable-stripping --enable-avresample --disable-filter=resample --enable-avisynth --enable-gnutls --enable-ladspa --enable-libaom --enable-libass --enable-libbluray --enable-libbs2b --enable-libcaca --enable-libcdio --enable-libcodec2 --enable-libflite --enable-libfontconfig --enable-libfreetype --enable-libfribidi --enable-libgme --enable-libgsm --enable-libjack --enable-libmp3lame --enable-libmysofa --enable-libopenjpeg --enable-libopenmpt --enable-libopus --enable-libpulse --enable-librsvg --enable-librubberband --enable-libshine --enable-libsnappy --enable-libsoxr --enable-libspeex --enable-libssh --enable-libtheora --enable-libtwolame --enable-libvidstab --enable-libvorbis --enable-libvpx --enable-libwavpack --enable-libwebp --enable-libx265 --enable-libxml2 --enable-libxvid --enable-libzmq --enable-libzvbi --enable-lv2 --enable-omx --enable-openal --enable-opengl --enable-sdl2 --enable-omx-rpi --enable-mmal --enable-neon --enable-rpi --enable-vout-drm --enable-v4l2-request --enable-libudev --enable-libdc1394 --enable-libdrm --enable-libiec61883 --enable-chromaprint --enable-frei0r --enable-libx264 --libdir=/usr/lib/arm-linux-gnueabihf/neon/vfp --cpu=cortex-a7 --arch=armv6t2 --disable-thumb --enable-shared --disable-doc --disable-programs\r\n",
      "  avcodec     configuration: --prefix=/usr --extra-version=0+deb10u1+rpt1 --toolchain=hardened --incdir=/usr/include/arm-linux-gnueabihf --enable-gpl --disable-stripping --enable-avresample --disable-filter=resample --enable-avisynth --enable-gnutls --enable-ladspa --enable-libaom --enable-libass --enable-libbluray --enable-libbs2b --enable-libcaca --enable-libcdio --enable-libcodec2 --enable-libflite --enable-libfontconfig --enable-libfreetype --enable-libfribidi --enable-libgme --enable-libgsm --enable-libjack --enable-libmp3lame --enable-libmysofa --enable-libopenjpeg --enable-libopenmpt --enable-libopus --enable-libpulse --enable-librsvg --enable-librubberband --enable-libshine --enable-libsnappy --enable-libsoxr --enable-libspeex --enable-libssh --enable-libtheora --enable-libtwolame --enable-libvidstab --enable-libvorbis --enable-libvpx --enable-libwavpack --enable-libwebp --enable-libx265 --enable-libxml2 --enable-libxvid --enable-libzmq --enable-libzvbi --enable-lv2 --enable-omx --enable-openal --enable-opengl --enable-sdl2 --enable-omx-rpi --enable-mmal --enable-neon --enable-rpi --enable-vout-drm --enable-v4l2-request --enable-libudev --enable-libdc1394 --enable-libdrm --enable-libiec61883 --enable-chromaprint --enable-frei0r --enable-libx264 --libdir=/usr/lib/arm-linux-gnueabihf/neon/vfp --cpu=cortex-a7 --arch=armv6t2 --disable-thumb --enable-shared --disable-doc --disable-programs\r\n",
      "  avformat    configuration: --prefix=/usr --extra-version=0+deb10u1+rpt1 --toolchain=hardened --incdir=/usr/include/arm-linux-gnueabihf --enable-gpl --disable-stripping --enable-avresample --disable-filter=resample --enable-avisynth --enable-gnutls --enable-ladspa --enable-libaom --enable-libass --enable-libbluray --enable-libbs2b --enable-libcaca --enable-libcdio --enable-libcodec2 --enable-libflite --enable-libfontconfig --enable-libfreetype --enable-libfribidi --enable-libgme --enable-libgsm --enable-libjack --enable-libmp3lame --enable-libmysofa --enable-libopenjpeg --enable-libopenmpt --enable-libopus --enable-libpulse --enable-librsvg --enable-librubberband --enable-libshine --enable-libsnappy --enable-libsoxr --enable-libspeex --enable-libssh --enable-libtheora --enable-libtwolame --enable-libvidstab --enable-libvorbis --enable-libvpx --enable-libwavpack --enable-libwebp --enable-libx265 --enable-libxml2 --enable-libxvid --enable-libzmq --enable-libzvbi --enable-lv2 --enable-omx --enable-openal --enable-opengl --enable-sdl2 --enable-omx-rpi --enable-mmal --enable-neon --enable-rpi --enable-vout-drm --enable-v4l2-request --enable-libudev --enable-libdc1394 --enable-libdrm --enable-libiec61883 --enable-chromaprint --enable-frei0r --enable-libx264 --libdir=/usr/lib/arm-linux-gnueabihf/neon/vfp --cpu=cortex-a7 --arch=armv6t2 --disable-thumb --enable-shared --disable-doc --disable-programs\r\n",
      "  avdevice    configuration: --prefix=/usr --extra-version=0+deb10u1+rpt1 --toolchain=hardened --incdir=/usr/include/arm-linux-gnueabihf --enable-gpl --disable-stripping --enable-avresample --disable-filter=resample --enable-avisynth --enable-gnutls --enable-ladspa --enable-libaom --enable-libass --enable-libbluray --enable-libbs2b --enable-libcaca --enable-libcdio --enable-libcodec2 --enable-libflite --enable-libfontconfig --enable-libfreetype --enable-libfribidi --enable-libgme --enable-libgsm --enable-libjack --enable-libmp3lame --enable-libmysofa --enable-libopenjpeg --enable-libopenmpt --enable-libopus --enable-libpulse --enable-librsvg --enable-librubberband --enable-libshine --enable-libsnappy --enable-libsoxr --enable-libspeex --enable-libssh --enable-libtheora --enable-libtwolame --enable-libvidstab --enable-libvorbis --enable-libvpx --enable-libwavpack --enable-libwebp --enable-libx265 --enable-libxml2 --enable-libxvid --enable-libzmq --enable-libzvbi --enable-lv2 --enable-omx --enable-openal --enable-opengl --enable-sdl2 --enable-omx-rpi --enable-mmal --enable-neon --enable-rpi --enable-vout-drm --enable-v4l2-request --enable-libudev --enable-libdc1394 --enable-libdrm --enable-libiec61883 --enable-chromaprint --enable-frei0r --enable-libx264 --libdir=/usr/lib/arm-linux-gnueabihf/neon/vfp --cpu=cortex-a7 --arch=armv6t2 --disable-thumb --enable-shared --disable-doc --disable-programs\r\n",
      "  avfilter    configuration: --prefix=/usr --extra-version=0+deb10u1+rpt1 --toolchain=hardened --incdir=/usr/include/arm-linux-gnueabihf --enable-gpl --disable-stripping --enable-avresample --disable-filter=resample --enable-avisynth --enable-gnutls --enable-ladspa --enable-libaom --enable-libass --enable-libbluray --enable-libbs2b --enable-libcaca --enable-libcdio --enable-libcodec2 --enable-libflite --enable-libfontconfig --enable-libfreetype --enable-libfribidi --enable-libgme --enable-libgsm --enable-libjack --enable-libmp3lame --enable-libmysofa --enable-libopenjpeg --enable-libopenmpt --enable-libopus --enable-libpulse --enable-librsvg --enable-librubberband --enable-libshine --enable-libsnappy --enable-libsoxr --enable-libspeex --enable-libssh --enable-libtheora --enable-libtwolame --enable-libvidstab --enable-libvorbis --enable-libvpx --enable-libwavpack --enable-libwebp --enable-libx265 --enable-libxml2 --enable-libxvid --enable-libzmq --enable-libzvbi --enable-lv2 --enable-omx --enable-openal --enable-opengl --enable-sdl2 --enable-omx-rpi --enable-mmal --enable-neon --enable-rpi --enable-vout-drm --enable-v4l2-request --enable-libudev --enable-libdc1394 --enable-libdrm --enable-libiec61883 --enable-chromaprint --enable-frei0r --enable-libx264 --libdir=/usr/lib/arm-linux-gnueabihf/neon/vfp --cpu=cortex-a7 --arch=armv6t2 --disable-thumb --enable-shared --disable-doc --disable-programs\r\n",
      "  avresample  configuration: --prefix=/usr --extra-version=0+deb10u1+rpt1 --toolchain=hardened --incdir=/usr/include/arm-linux-gnueabihf --enable-gpl --disable-stripping --enable-avresample --disable-filter=resample --enable-avisynth --enable-gnutls --enable-ladspa --enable-libaom --enable-libass --enable-libbluray --enable-libbs2b --enable-libcaca --enable-libcdio --enable-libcodec2 --enable-libflite --enable-libfontconfig --enable-libfreetype --enable-libfribidi --enable-libgme --enable-libgsm --enable-libjack --enable-libmp3lame --enable-libmysofa --enable-libopenjpeg --enable-libopenmpt --enable-libopus --enable-libpulse --enable-librsvg --enable-librubberband --enable-libshine --enable-libsnappy --enable-libsoxr --enable-libspeex --enable-libssh --enable-libtheora --enable-libtwolame --enable-libvidstab --enable-libvorbis --enable-libvpx --enable-libwavpack --enable-libwebp --enable-libx265 --enable-libxml2 --enable-libxvid --enable-libzmq --enable-libzvbi --enable-lv2 --enable-omx --enable-openal --enable-opengl --enable-sdl2 --enable-omx-rpi --enable-mmal --enable-neon --enable-rpi --enable-vout-drm --enable-v4l2-request --enable-libudev --enable-libdc1394 --enable-libdrm --enable-libiec61883 --enable-chromaprint --enable-frei0r --enable-libx264 --libdir=/usr/lib/arm-linux-gnueabihf/neon/vfp --cpu=cortex-a7 --arch=armv6t2 --disable-thumb --enable-shared --disable-doc --disable-programs\r\n",
      "  swscale     configuration: --prefix=/usr --extra-version=0+deb10u1+rpt1 --toolchain=hardened --incdir=/usr/include/arm-linux-gnueabihf --enable-gpl --disable-stripping --enable-avresample --disable-filter=resample --enable-avisynth --enable-gnutls --enable-ladspa --enable-libaom --enable-libass --enable-libbluray --enable-libbs2b --enable-libcaca --enable-libcdio --enable-libcodec2 --enable-libflite --enable-libfontconfig --enable-libfreetype --enable-libfribidi --enable-libgme --enable-libgsm --enable-libjack --enable-libmp3lame --enable-libmysofa --enable-libopenjpeg --enable-libopenmpt --enable-libopus --enable-libpulse --enable-librsvg --enable-librubberband --enable-libshine --enable-libsnappy --enable-libsoxr --enable-libspeex --enable-libssh --enable-libtheora --enable-libtwolame --enable-libvidstab --enable-libvorbis --enable-libvpx --enable-libwavpack --enable-libwebp --enable-libx265 --enable-libxml2 --enable-libxvid --enable-libzmq --enable-libzvbi --enable-lv2 --enable-omx --enable-openal --enable-opengl --enable-sdl2 --enable-omx-rpi --enable-mmal --enable-neon --enable-rpi --enable-vout-drm --enable-v4l2-request --enable-libudev --enable-libdc1394 --enable-libdrm --enable-libiec61883 --enable-chromaprint --enable-frei0r --enable-libx264 --libdir=/usr/lib/arm-linux-gnueabihf/neon/vfp --cpu=cortex-a7 --arch=armv6t2 --disable-thumb --enable-shared --disable-doc --disable-programs\r\n",
      "  swresample  configuration: --prefix=/usr --extra-version=0+deb10u1+rpt1 --toolchain=hardened --incdir=/usr/include/arm-linux-gnueabihf --enable-gpl --disable-stripping --enable-avresample --disable-filter=resample --enable-avisynth --enable-gnutls --enable-ladspa --enable-libaom --enable-libass --enable-libbluray --enable-libbs2b --enable-libcaca --enable-libcdio --enable-libcodec2 --enable-libflite --enable-libfontconfig --enable-libfreetype --enable-libfribidi --enable-libgme --enable-libgsm --enable-libjack --enable-libmp3lame --enable-libmysofa --enable-libopenjpeg --enable-libopenmpt --enable-libopus --enable-libpulse --enable-librsvg --enable-librubberband --enable-libshine --enable-libsnappy --enable-libsoxr --enable-libspeex --enable-libssh --enable-libtheora --enable-libtwolame --enable-libvidstab --enable-libvorbis --enable-libvpx --enable-libwavpack --enable-libwebp --enable-libx265 --enable-libxml2 --enable-libxvid --enable-libzmq --enable-libzvbi --enable-lv2 --enable-omx --enable-openal --enable-opengl --enable-sdl2 --enable-omx-rpi --enable-mmal --enable-neon --enable-rpi --enable-vout-drm --enable-v4l2-request --enable-libudev --enable-libdc1394 --enable-libdrm --enable-libiec61883 --enable-chromaprint --enable-frei0r --enable-libx264 --libdir=/usr/lib/arm-linux-gnueabihf/neon/vfp --cpu=cortex-a7 --arch=armv6t2 --disable-thumb --enable-shared --disable-doc --disable-programs\r\n",
      "  postproc    configuration: --prefix=/usr --extra-version=0+deb10u1+rpt1 --toolchain=hardened --incdir=/usr/include/arm-linux-gnueabihf --enable-gpl --disable-stripping --enable-avresample --disable-filter=resample --enable-avisynth --enable-gnutls --enable-ladspa --enable-libaom --enable-libass --enable-libbluray --enable-libbs2b --enable-libcaca --enable-libcdio --enable-libcodec2 --enable-libflite --enable-libfontconfig --enable-libfreetype --enable-libfribidi --enable-libgme --enable-libgsm --enable-libjack --enable-libmp3lame --enable-libmysofa --enable-libopenjpeg --enable-libopenmpt --enable-libopus --enable-libpulse --enable-librsvg --enable-librubberband --enable-libshine --enable-libsnappy --enable-libsoxr --enable-libspeex --enable-libssh --enable-libtheora --enable-libtwolame --enable-libvidstab --enable-libvorbis --enable-libvpx --enable-libwavpack --enable-libwebp --enable-libx265 --enable-libxml2 --enable-libxvid --enable-libzmq --enable-libzvbi --enable-lv2 --enable-omx --enable-openal --enable-opengl --enable-sdl2 --enable-omx-rpi --enable-mmal --enable-neon --enable-rpi --enable-vout-drm --enable-v4l2-request --enable-libudev --enable-libdc1394 --enable-libdrm --enable-libiec61883 --enable-chromaprint --enable-frei0r --enable-libx264 --libdir=/usr/lib/arm-linux-gnueabihf/neon/vfp --cpu=cortex-a7 --arch=armv6t2 --disable-thumb --enable-shared --disable-doc --disable-programs\r\n",
      "  libavutil      56. 22.100 / 56. 22.100\r\n",
      "  libavcodec     58. 35.100 / 58. 35.100\r\n",
      "  libavformat    58. 20.100 / 58. 20.100\r\n",
      "  libavdevice    58.  5.100 / 58.  5.100\r\n",
      "  libavfilter     7. 40.101 /  7. 40.101\r\n",
      "  libavresample   4.  0.  0 /  4.  0.  0\r\n",
      "  libswscale      5.  3.100 /  5.  3.100\r\n",
      "  libswresample   3.  3.100 /  3.  3.100\r\n",
      "  libpostproc    55.  3.100 / 55.  3.100\r\n"
     ]
    },
    {
     "name": "stdout",
     "output_type": "stream",
     "text": [
      "Input #0, video4linux2,v4l2, from '/dev/video0':\n",
      "  Duration: N/A, start: 1277.260931, bitrate: 73728 kb/s\n",
      "    Stream #0:0: Video: rawvideo (YUY2 / 0x32595559), yuyv422, 640x480, 73728 kb/s, 15 fps, 15 tbr, 1000k tbn, 1000k tbc\n",
      "Stream mapping:\n",
      "  Stream #0:0 -> #0:0 (rawvideo (native) -> h264 (libx264))\n",
      "Press [q] to stop, [?] for help\n",
      "\u001b[1;36m[libx264 @ 0x941210] \u001b[0musing cpu capabilities: ARMv6 NEON\n",
      "\u001b[1;36m[libx264 @ 0x941210] \u001b[0mprofile High 4:2:2, level 2.2, 4:2:2 8-bit\n",
      "\u001b[1;36m[libx264 @ 0x941210] \u001b[0m264 - core 155 r2917 0a84d98 - H.264/MPEG-4 AVC codec - Copyleft 2003-2018 - http://www.videolan.org/x264.html - options: cabac=0 ref=1 deblock=0:0:0 analyse=0:0 me=dia subme=0 psy=1 psy_rd=1.00:0.00 mixed_ref=0 me_range=16 chroma_me=1 trellis=1 8x8dct=0 cqm=0 deadzone=21,11 fast_pskip=1 chroma_qp_offset=0 threads=4 lookahead_threads=4 sliced_threads=1 slices=4 nr=0 decimate=1 interlaced=0 bluray_compat=0 constrained_intra=0 bframes=0 weightp=0 keyint=250 keyint_min=15 scenecut=0 intra_refresh=0 rc=crf mbtree=0 crf=50.0 qcomp=0.60 qpmin=0 qpmax=69 qpstep=4 ip_ratio=1.40 aq=0\n",
      "Output #0, flv, to 'rtmp://broadcast.api.video/s/1f089887-0ed5-4a8f-83cf-2813e5b7defc':\n",
      "  Metadata:\n",
      "    encoder         : Lavf58.20.100\n",
      "    Stream #0:0: Video: h264 (libx264) ([7][0][0][0] / 0x0007), yuv422p, 640x480, q=-1--1, 50000 kb/s, 15 fps, 1k tbn, 15 tbc\n",
      "    Metadata:\n",
      "      encoder         : Lavc58.35.100 libx264\n",
      "    Side data:\n",
      "      cpb: bitrate max/min/avg: 0/0/50000000 buffer size: 0 vbv_delay: -1\n",
      "\u001b[1;35m[flv @ 0x93fdb0] \u001b[0m\u001b[0;33mFailed to update header with correct duration. speed=1.02x    \n",
      "\u001b[0m\u001b[1;35m[flv @ 0x93fdb0] \u001b[0m\u001b[0;33mFailed to update header with correct filesize.\n",
      "\u001b[0mframe=  253 fps= 10 q=51.0 Lsize=      70kB time=00:00:25.33 bitrate=  22.6kbits/s speed=1.03x    \n",
      "video:64kB audio:0kB subtitle:0kB other streams:0kB global headers:0kB muxing overhead: 9.347896%\n",
      "\u001b[1;36m[libx264 @ 0x941210] \u001b[0mframe I:2     Avg QP:46.50  size:  9548\n",
      "\u001b[1;36m[libx264 @ 0x941210] \u001b[0mframe P:251   Avg QP:49.40  size:   182\n",
      "\u001b[1;36m[libx264 @ 0x941210] \u001b[0mmb I  I16..4: 100.0%  0.0%  0.0%\n",
      "\u001b[1;36m[libx264 @ 0x941210] \u001b[0mmb P  I16..4:  0.9%  0.0%  0.0%  P16..4:  2.1%  0.0%  0.0%  0.0%  0.0%    skip:97.0%\n",
      "\u001b[1;36m[libx264 @ 0x941210] \u001b[0mcoded y,uvDC,uvAC intra: 36.6% 35.4% 8.6% inter: 0.3% 0.4% 0.1%\n",
      "\u001b[1;36m[libx264 @ 0x941210] \u001b[0mi16 v,h,dc,p: 29% 32% 27% 12%\n",
      "\u001b[1;36m[libx264 @ 0x941210] \u001b[0mi8c dc,h,v,p: 76% 10% 12%  2%\n",
      "\u001b[1;36m[libx264 @ 0x941210] \u001b[0mkb/s:30.72\n",
      "Exiting normally, received signal 2.\n"
     ]
    }
   ],
   "source": [
    "!ffmpeg -input_format yuyv422 -i /dev/video0 -c:v libx264 -r 15 -crf 50 -preset ultrafast -tune zerolatency -b:v 50M -f flv rtmp://broadcast.api.video/s/1f089887-0ed5-4a8f-83cf-2813e5b7defc"
   ]
  },
  {
   "cell_type": "code",
   "execution_count": 6,
   "id": "468b91ee",
   "metadata": {
    "scrolled": true
   },
   "outputs": [
    {
     "name": "stdout",
     "output_type": "stream",
     "text": [
      "ffmpeg version 4.1.8-0+deb10u1+rpt1 Copyright (c) 2000-2021 the FFmpeg developers\r\n",
      "  built with gcc 8 (Raspbian 8.3.0-6+rpi1)\r\n",
      "  configuration: --prefix=/usr --extra-version=0+deb10u1+rpt1 --toolchain=hardened --incdir=/usr/include/arm-linux-gnueabihf --enable-gpl --disable-stripping --enable-avresample --disable-filter=resample --enable-avisynth --enable-gnutls --enable-ladspa --enable-libaom --enable-libass --enable-libbluray --enable-libbs2b --enable-libcaca --enable-libcdio --enable-libcodec2 --enable-libflite --enable-libfontconfig --enable-libfreetype --enable-libfribidi --enable-libgme --enable-libgsm --enable-libjack --enable-libmp3lame --enable-libmysofa --enable-libopenjpeg --enable-libopenmpt --enable-libopus --enable-libpulse --enable-librsvg --enable-librubberband --enable-libshine --enable-libsnappy --enable-libsoxr --enable-libspeex --enable-libssh --enable-libtheora --enable-libtwolame --enable-libvidstab --enable-libvorbis --enable-libvpx --enable-libwavpack --enable-libwebp --enable-libx265 --enable-libxml2 --enable-libxvid --enable-libzmq --enable-libzvbi --enable-lv2 --enable-omx --enable-openal --enable-opengl --enable-sdl2 --enable-omx-rpi --enable-mmal --enable-neon --enable-rpi --enable-vout-drm --enable-v4l2-request --enable-libudev --enable-libdc1394 --enable-libdrm --enable-libiec61883 --enable-chromaprint --enable-frei0r --enable-libx264 --enable-shared --libdir=/usr/lib/arm-linux-gnueabihf --cpu=arm1176jzf-s --arch=arm\r\n",
      "  WARNING: library configuration mismatch\r\n",
      "  avutil      configuration: --prefix=/usr --extra-version=0+deb10u1+rpt1 --toolchain=hardened --incdir=/usr/include/arm-linux-gnueabihf --enable-gpl --disable-stripping --enable-avresample --disable-filter=resample --enable-avisynth --enable-gnutls --enable-ladspa --enable-libaom --enable-libass --enable-libbluray --enable-libbs2b --enable-libcaca --enable-libcdio --enable-libcodec2 --enable-libflite --enable-libfontconfig --enable-libfreetype --enable-libfribidi --enable-libgme --enable-libgsm --enable-libjack --enable-libmp3lame --enable-libmysofa --enable-libopenjpeg --enable-libopenmpt --enable-libopus --enable-libpulse --enable-librsvg --enable-librubberband --enable-libshine --enable-libsnappy --enable-libsoxr --enable-libspeex --enable-libssh --enable-libtheora --enable-libtwolame --enable-libvidstab --enable-libvorbis --enable-libvpx --enable-libwavpack --enable-libwebp --enable-libx265 --enable-libxml2 --enable-libxvid --enable-libzmq --enable-libzvbi --enable-lv2 --enable-omx --enable-openal --enable-opengl --enable-sdl2 --enable-omx-rpi --enable-mmal --enable-neon --enable-rpi --enable-vout-drm --enable-v4l2-request --enable-libudev --enable-libdc1394 --enable-libdrm --enable-libiec61883 --enable-chromaprint --enable-frei0r --enable-libx264 --libdir=/usr/lib/arm-linux-gnueabihf/neon/vfp --cpu=cortex-a7 --arch=armv6t2 --disable-thumb --enable-shared --disable-doc --disable-programs\r\n",
      "  avcodec     configuration: --prefix=/usr --extra-version=0+deb10u1+rpt1 --toolchain=hardened --incdir=/usr/include/arm-linux-gnueabihf --enable-gpl --disable-stripping --enable-avresample --disable-filter=resample --enable-avisynth --enable-gnutls --enable-ladspa --enable-libaom --enable-libass --enable-libbluray --enable-libbs2b --enable-libcaca --enable-libcdio --enable-libcodec2 --enable-libflite --enable-libfontconfig --enable-libfreetype --enable-libfribidi --enable-libgme --enable-libgsm --enable-libjack --enable-libmp3lame --enable-libmysofa --enable-libopenjpeg --enable-libopenmpt --enable-libopus --enable-libpulse --enable-librsvg --enable-librubberband --enable-libshine --enable-libsnappy --enable-libsoxr --enable-libspeex --enable-libssh --enable-libtheora --enable-libtwolame --enable-libvidstab --enable-libvorbis --enable-libvpx --enable-libwavpack --enable-libwebp --enable-libx265 --enable-libxml2 --enable-libxvid --enable-libzmq --enable-libzvbi --enable-lv2 --enable-omx --enable-openal --enable-opengl --enable-sdl2 --enable-omx-rpi --enable-mmal --enable-neon --enable-rpi --enable-vout-drm --enable-v4l2-request --enable-libudev --enable-libdc1394 --enable-libdrm --enable-libiec61883 --enable-chromaprint --enable-frei0r --enable-libx264 --libdir=/usr/lib/arm-linux-gnueabihf/neon/vfp --cpu=cortex-a7 --arch=armv6t2 --disable-thumb --enable-shared --disable-doc --disable-programs\r\n",
      "  avformat    configuration: --prefix=/usr --extra-version=0+deb10u1+rpt1 --toolchain=hardened --incdir=/usr/include/arm-linux-gnueabihf --enable-gpl --disable-stripping --enable-avresample --disable-filter=resample --enable-avisynth --enable-gnutls --enable-ladspa --enable-libaom --enable-libass --enable-libbluray --enable-libbs2b --enable-libcaca --enable-libcdio --enable-libcodec2 --enable-libflite --enable-libfontconfig --enable-libfreetype --enable-libfribidi --enable-libgme --enable-libgsm --enable-libjack --enable-libmp3lame --enable-libmysofa --enable-libopenjpeg --enable-libopenmpt --enable-libopus --enable-libpulse --enable-librsvg --enable-librubberband --enable-libshine --enable-libsnappy --enable-libsoxr --enable-libspeex --enable-libssh --enable-libtheora --enable-libtwolame --enable-libvidstab --enable-libvorbis --enable-libvpx --enable-libwavpack --enable-libwebp --enable-libx265 --enable-libxml2 --enable-libxvid --enable-libzmq --enable-libzvbi --enable-lv2 --enable-omx --enable-openal --enable-opengl --enable-sdl2 --enable-omx-rpi --enable-mmal --enable-neon --enable-rpi --enable-vout-drm --enable-v4l2-request --enable-libudev --enable-libdc1394 --enable-libdrm --enable-libiec61883 --enable-chromaprint --enable-frei0r --enable-libx264 --libdir=/usr/lib/arm-linux-gnueabihf/neon/vfp --cpu=cortex-a7 --arch=armv6t2 --disable-thumb --enable-shared --disable-doc --disable-programs\r\n",
      "  avdevice    configuration: --prefix=/usr --extra-version=0+deb10u1+rpt1 --toolchain=hardened --incdir=/usr/include/arm-linux-gnueabihf --enable-gpl --disable-stripping --enable-avresample --disable-filter=resample --enable-avisynth --enable-gnutls --enable-ladspa --enable-libaom --enable-libass --enable-libbluray --enable-libbs2b --enable-libcaca --enable-libcdio --enable-libcodec2 --enable-libflite --enable-libfontconfig --enable-libfreetype --enable-libfribidi --enable-libgme --enable-libgsm --enable-libjack --enable-libmp3lame --enable-libmysofa --enable-libopenjpeg --enable-libopenmpt --enable-libopus --enable-libpulse --enable-librsvg --enable-librubberband --enable-libshine --enable-libsnappy --enable-libsoxr --enable-libspeex --enable-libssh --enable-libtheora --enable-libtwolame --enable-libvidstab --enable-libvorbis --enable-libvpx --enable-libwavpack --enable-libwebp --enable-libx265 --enable-libxml2 --enable-libxvid --enable-libzmq --enable-libzvbi --enable-lv2 --enable-omx --enable-openal --enable-opengl --enable-sdl2 --enable-omx-rpi --enable-mmal --enable-neon --enable-rpi --enable-vout-drm --enable-v4l2-request --enable-libudev --enable-libdc1394 --enable-libdrm --enable-libiec61883 --enable-chromaprint --enable-frei0r --enable-libx264 --libdir=/usr/lib/arm-linux-gnueabihf/neon/vfp --cpu=cortex-a7 --arch=armv6t2 --disable-thumb --enable-shared --disable-doc --disable-programs\r\n",
      "  avfilter    configuration: --prefix=/usr --extra-version=0+deb10u1+rpt1 --toolchain=hardened --incdir=/usr/include/arm-linux-gnueabihf --enable-gpl --disable-stripping --enable-avresample --disable-filter=resample --enable-avisynth --enable-gnutls --enable-ladspa --enable-libaom --enable-libass --enable-libbluray --enable-libbs2b --enable-libcaca --enable-libcdio --enable-libcodec2 --enable-libflite --enable-libfontconfig --enable-libfreetype --enable-libfribidi --enable-libgme --enable-libgsm --enable-libjack --enable-libmp3lame --enable-libmysofa --enable-libopenjpeg --enable-libopenmpt --enable-libopus --enable-libpulse --enable-librsvg --enable-librubberband --enable-libshine --enable-libsnappy --enable-libsoxr --enable-libspeex --enable-libssh --enable-libtheora --enable-libtwolame --enable-libvidstab --enable-libvorbis --enable-libvpx --enable-libwavpack --enable-libwebp --enable-libx265 --enable-libxml2 --enable-libxvid --enable-libzmq --enable-libzvbi --enable-lv2 --enable-omx --enable-openal --enable-opengl --enable-sdl2 --enable-omx-rpi --enable-mmal --enable-neon --enable-rpi --enable-vout-drm --enable-v4l2-request --enable-libudev --enable-libdc1394 --enable-libdrm --enable-libiec61883 --enable-chromaprint --enable-frei0r --enable-libx264 --libdir=/usr/lib/arm-linux-gnueabihf/neon/vfp --cpu=cortex-a7 --arch=armv6t2 --disable-thumb --enable-shared --disable-doc --disable-programs\r\n",
      "  avresample  configuration: --prefix=/usr --extra-version=0+deb10u1+rpt1 --toolchain=hardened --incdir=/usr/include/arm-linux-gnueabihf --enable-gpl --disable-stripping --enable-avresample --disable-filter=resample --enable-avisynth --enable-gnutls --enable-ladspa --enable-libaom --enable-libass --enable-libbluray --enable-libbs2b --enable-libcaca --enable-libcdio --enable-libcodec2 --enable-libflite --enable-libfontconfig --enable-libfreetype --enable-libfribidi --enable-libgme --enable-libgsm --enable-libjack --enable-libmp3lame --enable-libmysofa --enable-libopenjpeg --enable-libopenmpt --enable-libopus --enable-libpulse --enable-librsvg --enable-librubberband --enable-libshine --enable-libsnappy --enable-libsoxr --enable-libspeex --enable-libssh --enable-libtheora --enable-libtwolame --enable-libvidstab --enable-libvorbis --enable-libvpx --enable-libwavpack --enable-libwebp --enable-libx265 --enable-libxml2 --enable-libxvid --enable-libzmq --enable-libzvbi --enable-lv2 --enable-omx --enable-openal --enable-opengl --enable-sdl2 --enable-omx-rpi --enable-mmal --enable-neon --enable-rpi --enable-vout-drm --enable-v4l2-request --enable-libudev --enable-libdc1394 --enable-libdrm --enable-libiec61883 --enable-chromaprint --enable-frei0r --enable-libx264 --libdir=/usr/lib/arm-linux-gnueabihf/neon/vfp --cpu=cortex-a7 --arch=armv6t2 --disable-thumb --enable-shared --disable-doc --disable-programs\r\n",
      "  swscale     configuration: --prefix=/usr --extra-version=0+deb10u1+rpt1 --toolchain=hardened --incdir=/usr/include/arm-linux-gnueabihf --enable-gpl --disable-stripping --enable-avresample --disable-filter=resample --enable-avisynth --enable-gnutls --enable-ladspa --enable-libaom --enable-libass --enable-libbluray --enable-libbs2b --enable-libcaca --enable-libcdio --enable-libcodec2 --enable-libflite --enable-libfontconfig --enable-libfreetype --enable-libfribidi --enable-libgme --enable-libgsm --enable-libjack --enable-libmp3lame --enable-libmysofa --enable-libopenjpeg --enable-libopenmpt --enable-libopus --enable-libpulse --enable-librsvg --enable-librubberband --enable-libshine --enable-libsnappy --enable-libsoxr --enable-libspeex --enable-libssh --enable-libtheora --enable-libtwolame --enable-libvidstab --enable-libvorbis --enable-libvpx --enable-libwavpack --enable-libwebp --enable-libx265 --enable-libxml2 --enable-libxvid --enable-libzmq --enable-libzvbi --enable-lv2 --enable-omx --enable-openal --enable-opengl --enable-sdl2 --enable-omx-rpi --enable-mmal --enable-neon --enable-rpi --enable-vout-drm --enable-v4l2-request --enable-libudev --enable-libdc1394 --enable-libdrm --enable-libiec61883 --enable-chromaprint --enable-frei0r --enable-libx264 --libdir=/usr/lib/arm-linux-gnueabihf/neon/vfp --cpu=cortex-a7 --arch=armv6t2 --disable-thumb --enable-shared --disable-doc --disable-programs\r\n",
      "  swresample  configuration: --prefix=/usr --extra-version=0+deb10u1+rpt1 --toolchain=hardened --incdir=/usr/include/arm-linux-gnueabihf --enable-gpl --disable-stripping --enable-avresample --disable-filter=resample --enable-avisynth --enable-gnutls --enable-ladspa --enable-libaom --enable-libass --enable-libbluray --enable-libbs2b --enable-libcaca --enable-libcdio --enable-libcodec2 --enable-libflite --enable-libfontconfig --enable-libfreetype --enable-libfribidi --enable-libgme --enable-libgsm --enable-libjack --enable-libmp3lame --enable-libmysofa --enable-libopenjpeg --enable-libopenmpt --enable-libopus --enable-libpulse --enable-librsvg --enable-librubberband --enable-libshine --enable-libsnappy --enable-libsoxr --enable-libspeex --enable-libssh --enable-libtheora --enable-libtwolame --enable-libvidstab --enable-libvorbis --enable-libvpx --enable-libwavpack --enable-libwebp --enable-libx265 --enable-libxml2 --enable-libxvid --enable-libzmq --enable-libzvbi --enable-lv2 --enable-omx --enable-openal --enable-opengl --enable-sdl2 --enable-omx-rpi --enable-mmal --enable-neon --enable-rpi --enable-vout-drm --enable-v4l2-request --enable-libudev --enable-libdc1394 --enable-libdrm --enable-libiec61883 --enable-chromaprint --enable-frei0r --enable-libx264 --libdir=/usr/lib/arm-linux-gnueabihf/neon/vfp --cpu=cortex-a7 --arch=armv6t2 --disable-thumb --enable-shared --disable-doc --disable-programs\r\n",
      "  postproc    configuration: --prefix=/usr --extra-version=0+deb10u1+rpt1 --toolchain=hardened --incdir=/usr/include/arm-linux-gnueabihf --enable-gpl --disable-stripping --enable-avresample --disable-filter=resample --enable-avisynth --enable-gnutls --enable-ladspa --enable-libaom --enable-libass --enable-libbluray --enable-libbs2b --enable-libcaca --enable-libcdio --enable-libcodec2 --enable-libflite --enable-libfontconfig --enable-libfreetype --enable-libfribidi --enable-libgme --enable-libgsm --enable-libjack --enable-libmp3lame --enable-libmysofa --enable-libopenjpeg --enable-libopenmpt --enable-libopus --enable-libpulse --enable-librsvg --enable-librubberband --enable-libshine --enable-libsnappy --enable-libsoxr --enable-libspeex --enable-libssh --enable-libtheora --enable-libtwolame --enable-libvidstab --enable-libvorbis --enable-libvpx --enable-libwavpack --enable-libwebp --enable-libx265 --enable-libxml2 --enable-libxvid --enable-libzmq --enable-libzvbi --enable-lv2 --enable-omx --enable-openal --enable-opengl --enable-sdl2 --enable-omx-rpi --enable-mmal --enable-neon --enable-rpi --enable-vout-drm --enable-v4l2-request --enable-libudev --enable-libdc1394 --enable-libdrm --enable-libiec61883 --enable-chromaprint --enable-frei0r --enable-libx264 --libdir=/usr/lib/arm-linux-gnueabihf/neon/vfp --cpu=cortex-a7 --arch=armv6t2 --disable-thumb --enable-shared --disable-doc --disable-programs\r\n",
      "  libavutil      56. 22.100 / 56. 22.100\r\n",
      "  libavcodec     58. 35.100 / 58. 35.100\r\n",
      "  libavformat    58. 20.100 / 58. 20.100\r\n",
      "  libavdevice    58.  5.100 / 58.  5.100\r\n",
      "  libavfilter     7. 40.101 /  7. 40.101\r\n",
      "  libavresample   4.  0.  0 /  4.  0.  0\r\n",
      "  libswscale      5.  3.100 /  5.  3.100\r\n",
      "  libswresample   3.  3.100 /  3.  3.100\r\n",
      "  libpostproc    55.  3.100 / 55.  3.100\r\n"
     ]
    },
    {
     "name": "stdout",
     "output_type": "stream",
     "text": [
      "Input #0, video4linux2,v4l2, from '/dev/video0':\n",
      "  Duration: N/A, start: 14793.215167, bitrate: 73728 kb/s\n",
      "    Stream #0:0: Video: rawvideo (YUY2 / 0x32595559), yuyv422, 640x480, 73728 kb/s, 15 fps, 15 tbr, 1000k tbn, 1000k tbc\n",
      "\u001b[0;39m[tcp @ 0x1eb5da0] \u001b[0m\u001b[1;31mConnection to tcp://20.124.115.179:1935 failed: Connection timed out\n",
      "\u001b[0m\u001b[0;39m[rtmp @ 0x1eb58a0] \u001b[0m\u001b[1;31mCannot open connection tcp://20.124.115.179:1935\n",
      "\u001b[0m\u001b[1;31mrtmp://20.124.115.179/show/stream: Connection timed out\n",
      "\u001b[0m"
     ]
    }
   ],
   "source": [
    "!ffmpeg -re -f video4linux2 -i /dev/video0 -vcodec libx264 -vprofile baseline -acodec aac -strict -2 -f flv rtmp://20.124.115.179/show/stream\n"
   ]
  },
  {
   "cell_type": "code",
   "execution_count": null,
   "id": "e886d73f",
   "metadata": {},
   "outputs": [],
   "source": []
  }
 ],
 "metadata": {
  "kernelspec": {
   "display_name": "Python 3 (ipykernel)",
   "language": "python",
   "name": "python3"
  },
  "language_info": {
   "codemirror_mode": {
    "name": "ipython",
    "version": 3
   },
   "file_extension": ".py",
   "mimetype": "text/x-python",
   "name": "python",
   "nbconvert_exporter": "python",
   "pygments_lexer": "ipython3",
   "version": "3.7.3"
  }
 },
 "nbformat": 4,
 "nbformat_minor": 5
}
